<?xml version="1.0" encoding="utf-8" standalone="no"?>
<!DOCTYPE svg PUBLIC "-//W3C//DTD SVG 1.1//EN"
  "http://www.w3.org/Graphics/SVG/1.1/DTD/svg11.dtd">
<!-- Created with matplotlib (http://matplotlib.org/) -->
<svg height="345.6pt" version="1.1" viewBox="0 0 460.8 345.6" width="460.8pt" xmlns="http://www.w3.org/2000/svg" xmlns:xlink="http://www.w3.org/1999/xlink">
 <defs>
  <style type="text/css">
*{stroke-linecap:butt;stroke-linejoin:round;}
  </style>
 </defs>
 <g id="figure_1">
  <g id="patch_1">
   <path d="M 0 345.6 
L 460.8 345.6 
L 460.8 0 
L 0 0 
z
" style="fill:#ffffff;"/>
  </g>
  <g id="axes_1">
   <g id="patch_2">
    <path d="M 396.2592 172.8 
C 396.2592 171.224148 396.236741 169.648376 396.191831 168.073165 
C 396.146921 166.497953 396.079563 164.923461 395.989779 163.350169 
L 306.826052 168.43854 
C 306.867491 169.164675 306.898579 169.891363 306.919307 170.618384 
C 306.940034 171.345405 306.9504 172.072684 306.9504 172.8 
L 396.2592 172.8 
z
" style="fill:#1f77b4;stroke:#ffffff;stroke-linejoin:miter;"/>
   </g>
   <g id="patch_3">
    <path d="M 395.989779 163.350169 
C 395.924523 162.206682 395.847424 161.0639 395.758494 159.92201 
C 395.669565 158.780119 395.568809 157.63918 395.456245 156.499377 
L 306.579805 165.276635 
C 306.631758 165.802698 306.678261 166.329286 306.719305 166.856312 
C 306.760349 167.383339 306.795934 167.910776 306.826052 168.43854 
L 395.989779 163.350169 
z
" style="fill:#ff7f0e;stroke:#ffffff;stroke-linejoin:miter;"/>
   </g>
   <g id="patch_4">
    <path d="M 395.456245 156.499377 
C 393.261841 134.279365 386.602949 112.729565 375.879721 93.144962 
C 365.156492 73.560359 350.588113 56.341269 333.050037 42.522434 
L 277.77694 112.671893 
C 285.871437 119.049817 292.595304 126.997089 297.544487 136.036136 
C 302.493669 145.075184 305.567004 155.021246 306.579805 165.276635 
L 395.456245 156.499377 
z
" style="fill:#2ca02c;stroke:#ffffff;stroke-linejoin:miter;"/>
   </g>
   <g id="patch_5">
    <path d="M 333.050037 42.522434 
C 332.937783 42.433986 332.825415 42.345682 332.712933 42.257524 
C 332.60045 42.169366 332.487854 42.081353 332.375145 41.993486 
L 277.465451 112.427763 
C 277.517471 112.468317 277.569439 112.508938 277.621354 112.549626 
C 277.673268 112.590315 277.725131 112.63107 277.77694 112.671893 
L 333.050037 42.522434 
z
" style="fill:#d62728;stroke:#ffffff;stroke-linejoin:miter;"/>
   </g>
   <g id="patch_6">
    <path d="M 332.375145 41.993486 
C 297.878175 15.100074 254.105569 2.915872 210.674758 8.117915 
C 167.243947 13.319958 127.587071 35.497151 100.417278 69.776866 
L 170.407974 125.250861 
C 182.947879 109.429454 201.251053 99.193827 221.296042 96.792884 
C 241.341032 94.391941 261.543773 100.015419 277.465451 112.427763 
L 332.375145 41.993486 
z
" style="fill:#9467bd;stroke:#ffffff;stroke-linejoin:miter;"/>
   </g>
   <g id="patch_7">
    <path d="M 100.417278 69.776866 
C 95.132686 76.444355 90.368934 83.508584 86.168216 90.906981 
C 81.967497 98.305378 78.342252 106.016037 75.324589 113.97066 
L 158.826734 145.647997 
C 160.219501 141.976632 161.892691 138.417867 163.831484 135.003222 
C 165.770277 131.588577 167.968932 128.328164 170.407974 125.250861 
L 100.417278 69.776866 
z
" style="fill:#8c564b;stroke:#ffffff;stroke-linejoin:miter;"/>
   </g>
   <g id="patch_8">
    <path d="M 75.324589 113.97066 
C 73.032465 120.012751 71.095418 126.18364 69.523359 132.45176 
C 67.951299 138.71988 66.746913 145.074522 65.916361 151.483179 
L 154.484474 162.961467 
C 154.867806 160.003626 155.423677 157.070714 156.149242 154.177735 
C 156.874808 151.284757 157.76883 148.436654 158.826734 145.647997 
L 75.324589 113.97066 
z
" style="fill:#e377c2;stroke:#ffffff;stroke-linejoin:miter;"/>
   </g>
   <g id="patch_9">
    <path d="M 65.916361 151.483179 
C 60.445172 193.699657 71.431592 236.443416 96.581598 270.789334 
C 121.731605 305.135252 159.163762 328.51396 201.062037 336.043861 
C 242.960313 343.573762 286.190357 334.691554 321.725509 311.251889 
C 357.260661 287.812224 382.442587 251.56859 392.013168 210.08885 
L 304.990693 190.010238 
C 300.573502 209.154734 288.951074 225.882565 272.550235 236.700872 
C 256.149396 247.519179 236.197067 251.618659 216.859402 248.14332 
C 197.521736 244.667982 180.245356 233.877809 168.637661 218.025846 
C 157.029966 202.173884 151.95931 182.445995 154.484474 162.961467 
L 65.916361 151.483179 
z
" style="fill:#7f7f7f;stroke:#ffffff;stroke-linejoin:miter;"/>
   </g>
   <g id="patch_10">
    <path d="M 392.013168 210.08885 
C 392.716645 207.039915 393.333702 203.971683 393.863597 200.887839 
C 394.393492 197.803994 394.836013 194.705772 395.190628 191.596892 
L 306.457213 181.475489 
C 306.293544 182.910356 306.089304 184.340305 305.844737 185.763618 
C 305.60017 187.186931 305.315375 188.603038 304.990693 190.010238 
L 392.013168 210.08885 
z
" style="fill:#bcbd22;stroke:#ffffff;stroke-linejoin:miter;"/>
   </g>
   <g id="patch_11">
    <path d="M 395.190628 191.596892 
C 395.281406 190.801046 395.366418 190.004552 395.445657 189.207474 
C 395.524896 188.410395 395.59836 187.612754 395.666043 186.814611 
L 306.676635 179.268282 
C 306.645397 179.636656 306.611491 180.004798 306.574919 180.37268 
C 306.538347 180.740562 306.499111 181.108175 306.457213 181.475489 
L 395.190628 191.596892 
z
" style="fill:#17becf;stroke:#ffffff;stroke-linejoin:miter;"/>
   </g>
   <g id="patch_12">
    <path d="M 395.666043 186.814611 
C 395.66638 186.810633 395.666717 186.806656 395.667054 186.802678 
C 395.667391 186.798701 395.667728 186.794723 395.668065 186.790745 
L 306.677568 179.257267 
C 306.677413 179.259103 306.677258 179.260939 306.677102 179.262775 
C 306.676946 179.26461 306.676791 179.266446 306.676635 179.268282 
L 395.666043 186.814611 
z
" style="fill:#1f77b4;stroke:#ffffff;stroke-linejoin:miter;"/>
   </g>
   <g id="patch_13">
    <path d="M 395.668065 186.790745 
C 395.66864 186.783946 395.669216 186.777147 395.66979 186.770348 
C 395.670365 186.763549 395.670939 186.75675 395.671513 186.749951 
L 306.67916 179.238439 
C 306.678895 179.241577 306.67863 179.244715 306.678365 179.247853 
C 306.6781 179.250991 306.677834 179.254129 306.677568 179.257267 
L 395.668065 186.790745 
z
" style="fill:#ff7f0e;stroke:#ffffff;stroke-linejoin:miter;"/>
   </g>
   <g id="patch_14">
    <path d="M 395.671513 186.749951 
C 395.867302 184.430355 396.014235 182.106895 396.112215 179.781114 
C 396.210196 177.455333 396.259201 175.127747 396.2592 172.799903 
L 306.9504 172.799955 
C 306.950401 173.874345 306.927783 174.948615 306.882561 176.022052 
C 306.837339 177.09549 306.769524 178.167856 306.67916 179.238439 
L 395.671513 186.749951 
z
" style="fill:#2ca02c;stroke:#ffffff;stroke-linejoin:miter;"/>
   </g>
   <g id="matplotlib.axis_1"/>
   <g id="matplotlib.axis_2"/>
   <g id="text_1">
    <!-- byu-coca -->
    <defs>
     <path d="M 48.6875 27.296875 
Q 48.6875 37.203125 44.609375 42.84375 
Q 40.53125 48.484375 33.40625 48.484375 
Q 26.265625 48.484375 22.1875 42.84375 
Q 18.109375 37.203125 18.109375 27.296875 
Q 18.109375 17.390625 22.1875 11.75 
Q 26.265625 6.109375 33.40625 6.109375 
Q 40.53125 6.109375 44.609375 11.75 
Q 48.6875 17.390625 48.6875 27.296875 
z
M 18.109375 46.390625 
Q 20.953125 51.265625 25.265625 53.625 
Q 29.59375 56 35.59375 56 
Q 45.5625 56 51.78125 48.09375 
Q 58.015625 40.1875 58.015625 27.296875 
Q 58.015625 14.40625 51.78125 6.484375 
Q 45.5625 -1.421875 35.59375 -1.421875 
Q 29.59375 -1.421875 25.265625 0.953125 
Q 20.953125 3.328125 18.109375 8.203125 
L 18.109375 0 
L 9.078125 0 
L 9.078125 75.984375 
L 18.109375 75.984375 
z
" id="DejaVuSans-62"/>
     <path d="M 32.171875 -5.078125 
Q 28.375 -14.84375 24.75 -17.8125 
Q 21.140625 -20.796875 15.09375 -20.796875 
L 7.90625 -20.796875 
L 7.90625 -13.28125 
L 13.1875 -13.28125 
Q 16.890625 -13.28125 18.9375 -11.515625 
Q 21 -9.765625 23.484375 -3.21875 
L 25.09375 0.875 
L 2.984375 54.6875 
L 12.5 54.6875 
L 29.59375 11.921875 
L 46.6875 54.6875 
L 56.203125 54.6875 
z
" id="DejaVuSans-79"/>
     <path d="M 8.5 21.578125 
L 8.5 54.6875 
L 17.484375 54.6875 
L 17.484375 21.921875 
Q 17.484375 14.15625 20.5 10.265625 
Q 23.53125 6.390625 29.59375 6.390625 
Q 36.859375 6.390625 41.078125 11.03125 
Q 45.3125 15.671875 45.3125 23.6875 
L 45.3125 54.6875 
L 54.296875 54.6875 
L 54.296875 0 
L 45.3125 0 
L 45.3125 8.40625 
Q 42.046875 3.421875 37.71875 1 
Q 33.40625 -1.421875 27.6875 -1.421875 
Q 18.265625 -1.421875 13.375 4.4375 
Q 8.5 10.296875 8.5 21.578125 
z
M 31.109375 56 
z
" id="DejaVuSans-75"/>
     <path d="M 4.890625 31.390625 
L 31.203125 31.390625 
L 31.203125 23.390625 
L 4.890625 23.390625 
z
" id="DejaVuSans-2d"/>
     <path d="M 48.78125 52.59375 
L 48.78125 44.1875 
Q 44.96875 46.296875 41.140625 47.34375 
Q 37.3125 48.390625 33.40625 48.390625 
Q 24.65625 48.390625 19.8125 42.84375 
Q 14.984375 37.3125 14.984375 27.296875 
Q 14.984375 17.28125 19.8125 11.734375 
Q 24.65625 6.203125 33.40625 6.203125 
Q 37.3125 6.203125 41.140625 7.25 
Q 44.96875 8.296875 48.78125 10.40625 
L 48.78125 2.09375 
Q 45.015625 0.34375 40.984375 -0.53125 
Q 36.96875 -1.421875 32.421875 -1.421875 
Q 20.0625 -1.421875 12.78125 6.34375 
Q 5.515625 14.109375 5.515625 27.296875 
Q 5.515625 40.671875 12.859375 48.328125 
Q 20.21875 56 33.015625 56 
Q 37.15625 56 41.109375 55.140625 
Q 45.0625 54.296875 48.78125 52.59375 
z
" id="DejaVuSans-63"/>
     <path d="M 30.609375 48.390625 
Q 23.390625 48.390625 19.1875 42.75 
Q 14.984375 37.109375 14.984375 27.296875 
Q 14.984375 17.484375 19.15625 11.84375 
Q 23.34375 6.203125 30.609375 6.203125 
Q 37.796875 6.203125 41.984375 11.859375 
Q 46.1875 17.53125 46.1875 27.296875 
Q 46.1875 37.015625 41.984375 42.703125 
Q 37.796875 48.390625 30.609375 48.390625 
z
M 30.609375 56 
Q 42.328125 56 49.015625 48.375 
Q 55.71875 40.765625 55.71875 27.296875 
Q 55.71875 13.875 49.015625 6.21875 
Q 42.328125 -1.421875 30.609375 -1.421875 
Q 18.84375 -1.421875 12.171875 6.21875 
Q 5.515625 13.875 5.515625 27.296875 
Q 5.515625 40.765625 12.171875 48.375 
Q 18.84375 56 30.609375 56 
z
" id="DejaVuSans-6f"/>
     <path d="M 34.28125 27.484375 
Q 23.390625 27.484375 19.1875 25 
Q 14.984375 22.515625 14.984375 16.5 
Q 14.984375 11.71875 18.140625 8.90625 
Q 21.296875 6.109375 26.703125 6.109375 
Q 34.1875 6.109375 38.703125 11.40625 
Q 43.21875 16.703125 43.21875 25.484375 
L 43.21875 27.484375 
z
M 52.203125 31.203125 
L 52.203125 0 
L 43.21875 0 
L 43.21875 8.296875 
Q 40.140625 3.328125 35.546875 0.953125 
Q 30.953125 -1.421875 24.3125 -1.421875 
Q 15.921875 -1.421875 10.953125 3.296875 
Q 6 8.015625 6 15.921875 
Q 6 25.140625 12.171875 29.828125 
Q 18.359375 34.515625 30.609375 34.515625 
L 43.21875 34.515625 
L 43.21875 35.40625 
Q 43.21875 41.609375 39.140625 45 
Q 35.0625 48.390625 27.6875 48.390625 
Q 23 48.390625 18.546875 47.265625 
Q 14.109375 46.140625 10.015625 43.890625 
L 10.015625 52.203125 
Q 14.9375 54.109375 19.578125 55.046875 
Q 24.21875 56 28.609375 56 
Q 40.484375 56 46.34375 49.84375 
Q 52.203125 43.703125 52.203125 31.203125 
z
" id="DejaVuSans-61"/>
    </defs>
    <g transform="translate(412.771014 164.76095)scale(0.1 -0.1)">
     <use xlink:href="#DejaVuSans-62"/>
     <use x="63.476562" xlink:href="#DejaVuSans-79"/>
     <use x="122.65625" xlink:href="#DejaVuSans-75"/>
     <use x="186.035156" xlink:href="#DejaVuSans-2d"/>
     <use x="222.119141" xlink:href="#DejaVuSans-63"/>
     <use x="277.099609" xlink:href="#DejaVuSans-6f"/>
     <use x="338.28125" xlink:href="#DejaVuSans-63"/>
     <use x="393.261719" xlink:href="#DejaVuSans-61"/>
    </g>
    <!-- (6.39 GB) -->
    <defs>
     <path d="M 31 75.875 
Q 24.46875 64.65625 21.28125 53.65625 
Q 18.109375 42.671875 18.109375 31.390625 
Q 18.109375 20.125 21.3125 9.0625 
Q 24.515625 -2 31 -13.1875 
L 23.1875 -13.1875 
Q 15.875 -1.703125 12.234375 9.375 
Q 8.59375 20.453125 8.59375 31.390625 
Q 8.59375 42.28125 12.203125 53.3125 
Q 15.828125 64.359375 23.1875 75.875 
z
" id="DejaVuSans-28"/>
     <path d="M 33.015625 40.375 
Q 26.375 40.375 22.484375 35.828125 
Q 18.609375 31.296875 18.609375 23.390625 
Q 18.609375 15.53125 22.484375 10.953125 
Q 26.375 6.390625 33.015625 6.390625 
Q 39.65625 6.390625 43.53125 10.953125 
Q 47.40625 15.53125 47.40625 23.390625 
Q 47.40625 31.296875 43.53125 35.828125 
Q 39.65625 40.375 33.015625 40.375 
z
M 52.59375 71.296875 
L 52.59375 62.3125 
Q 48.875 64.0625 45.09375 64.984375 
Q 41.3125 65.921875 37.59375 65.921875 
Q 27.828125 65.921875 22.671875 59.328125 
Q 17.53125 52.734375 16.796875 39.40625 
Q 19.671875 43.65625 24.015625 45.921875 
Q 28.375 48.1875 33.59375 48.1875 
Q 44.578125 48.1875 50.953125 41.515625 
Q 57.328125 34.859375 57.328125 23.390625 
Q 57.328125 12.15625 50.6875 5.359375 
Q 44.046875 -1.421875 33.015625 -1.421875 
Q 20.359375 -1.421875 13.671875 8.265625 
Q 6.984375 17.96875 6.984375 36.375 
Q 6.984375 53.65625 15.1875 63.9375 
Q 23.390625 74.21875 37.203125 74.21875 
Q 40.921875 74.21875 44.703125 73.484375 
Q 48.484375 72.75 52.59375 71.296875 
z
" id="DejaVuSans-36"/>
     <path d="M 10.6875 12.40625 
L 21 12.40625 
L 21 0 
L 10.6875 0 
z
" id="DejaVuSans-2e"/>
     <path d="M 40.578125 39.3125 
Q 47.65625 37.796875 51.625 33 
Q 55.609375 28.21875 55.609375 21.1875 
Q 55.609375 10.40625 48.1875 4.484375 
Q 40.765625 -1.421875 27.09375 -1.421875 
Q 22.515625 -1.421875 17.65625 -0.515625 
Q 12.796875 0.390625 7.625 2.203125 
L 7.625 11.71875 
Q 11.71875 9.328125 16.59375 8.109375 
Q 21.484375 6.890625 26.8125 6.890625 
Q 36.078125 6.890625 40.9375 10.546875 
Q 45.796875 14.203125 45.796875 21.1875 
Q 45.796875 27.640625 41.28125 31.265625 
Q 36.765625 34.90625 28.71875 34.90625 
L 20.21875 34.90625 
L 20.21875 43.015625 
L 29.109375 43.015625 
Q 36.375 43.015625 40.234375 45.921875 
Q 44.09375 48.828125 44.09375 54.296875 
Q 44.09375 59.90625 40.109375 62.90625 
Q 36.140625 65.921875 28.71875 65.921875 
Q 24.65625 65.921875 20.015625 65.03125 
Q 15.375 64.15625 9.8125 62.3125 
L 9.8125 71.09375 
Q 15.4375 72.65625 20.34375 73.4375 
Q 25.25 74.21875 29.59375 74.21875 
Q 40.828125 74.21875 47.359375 69.109375 
Q 53.90625 64.015625 53.90625 55.328125 
Q 53.90625 49.265625 50.4375 45.09375 
Q 46.96875 40.921875 40.578125 39.3125 
z
" id="DejaVuSans-33"/>
     <path d="M 10.984375 1.515625 
L 10.984375 10.5 
Q 14.703125 8.734375 18.5 7.8125 
Q 22.3125 6.890625 25.984375 6.890625 
Q 35.75 6.890625 40.890625 13.453125 
Q 46.046875 20.015625 46.78125 33.40625 
Q 43.953125 29.203125 39.59375 26.953125 
Q 35.25 24.703125 29.984375 24.703125 
Q 19.046875 24.703125 12.671875 31.3125 
Q 6.296875 37.9375 6.296875 49.421875 
Q 6.296875 60.640625 12.9375 67.421875 
Q 19.578125 74.21875 30.609375 74.21875 
Q 43.265625 74.21875 49.921875 64.515625 
Q 56.59375 54.828125 56.59375 36.375 
Q 56.59375 19.140625 48.40625 8.859375 
Q 40.234375 -1.421875 26.421875 -1.421875 
Q 22.703125 -1.421875 18.890625 -0.6875 
Q 15.09375 0.046875 10.984375 1.515625 
z
M 30.609375 32.421875 
Q 37.25 32.421875 41.125 36.953125 
Q 45.015625 41.5 45.015625 49.421875 
Q 45.015625 57.28125 41.125 61.84375 
Q 37.25 66.40625 30.609375 66.40625 
Q 23.96875 66.40625 20.09375 61.84375 
Q 16.21875 57.28125 16.21875 49.421875 
Q 16.21875 41.5 20.09375 36.953125 
Q 23.96875 32.421875 30.609375 32.421875 
z
" id="DejaVuSans-39"/>
     <path id="DejaVuSans-20"/>
     <path d="M 59.515625 10.40625 
L 59.515625 29.984375 
L 43.40625 29.984375 
L 43.40625 38.09375 
L 69.28125 38.09375 
L 69.28125 6.78125 
Q 63.578125 2.734375 56.6875 0.65625 
Q 49.8125 -1.421875 42 -1.421875 
Q 24.90625 -1.421875 15.25 8.5625 
Q 5.609375 18.5625 5.609375 36.375 
Q 5.609375 54.25 15.25 64.234375 
Q 24.90625 74.21875 42 74.21875 
Q 49.125 74.21875 55.546875 72.453125 
Q 61.96875 70.703125 67.390625 67.28125 
L 67.390625 56.78125 
Q 61.921875 61.421875 55.765625 63.765625 
Q 49.609375 66.109375 42.828125 66.109375 
Q 29.4375 66.109375 22.71875 58.640625 
Q 16.015625 51.171875 16.015625 36.375 
Q 16.015625 21.625 22.71875 14.15625 
Q 29.4375 6.6875 42.828125 6.6875 
Q 48.046875 6.6875 52.140625 7.59375 
Q 56.25 8.5 59.515625 10.40625 
z
" id="DejaVuSans-47"/>
     <path d="M 19.671875 34.8125 
L 19.671875 8.109375 
L 35.5 8.109375 
Q 43.453125 8.109375 47.28125 11.40625 
Q 51.125 14.703125 51.125 21.484375 
Q 51.125 28.328125 47.28125 31.5625 
Q 43.453125 34.8125 35.5 34.8125 
z
M 19.671875 64.796875 
L 19.671875 42.828125 
L 34.28125 42.828125 
Q 41.5 42.828125 45.03125 45.53125 
Q 48.578125 48.25 48.578125 53.8125 
Q 48.578125 59.328125 45.03125 62.0625 
Q 41.5 64.796875 34.28125 64.796875 
z
M 9.8125 72.90625 
L 35.015625 72.90625 
Q 46.296875 72.90625 52.390625 68.21875 
Q 58.5 63.53125 58.5 54.890625 
Q 58.5 48.1875 55.375 44.234375 
Q 52.25 40.28125 46.1875 39.3125 
Q 53.46875 37.75 57.5 32.78125 
Q 61.53125 27.828125 61.53125 20.40625 
Q 61.53125 10.640625 54.890625 5.3125 
Q 48.25 0 35.984375 0 
L 9.8125 0 
z
" id="DejaVuSans-42"/>
     <path d="M 8.015625 75.875 
L 15.828125 75.875 
Q 23.140625 64.359375 26.78125 53.3125 
Q 30.421875 42.28125 30.421875 31.390625 
Q 30.421875 20.453125 26.78125 9.375 
Q 23.140625 -1.703125 15.828125 -13.1875 
L 8.015625 -13.1875 
Q 14.5 -2 17.703125 9.0625 
Q 20.90625 20.125 20.90625 31.390625 
Q 20.90625 42.671875 17.703125 53.65625 
Q 14.5 64.65625 8.015625 75.875 
z
" id="DejaVuSans-29"/>
    </defs>
    <g transform="translate(412.771014 175.958763)scale(0.1 -0.1)">
     <use xlink:href="#DejaVuSans-28"/>
     <use x="39.013672" xlink:href="#DejaVuSans-36"/>
     <use x="102.636719" xlink:href="#DejaVuSans-2e"/>
     <use x="134.423828" xlink:href="#DejaVuSans-33"/>
     <use x="198.046875" xlink:href="#DejaVuSans-39"/>
     <use x="261.669922" xlink:href="#DejaVuSans-20"/>
     <use x="293.457031" xlink:href="#DejaVuSans-47"/>
     <use x="370.947266" xlink:href="#DejaVuSans-42"/>
     <use x="439.550781" xlink:href="#DejaVuSans-29"/>
    </g>
   </g>
   <g id="text_2">
    <!-- byu-coha -->
    <defs>
     <path d="M 54.890625 33.015625 
L 54.890625 0 
L 45.90625 0 
L 45.90625 32.71875 
Q 45.90625 40.484375 42.875 44.328125 
Q 39.84375 48.1875 33.796875 48.1875 
Q 26.515625 48.1875 22.3125 43.546875 
Q 18.109375 38.921875 18.109375 30.90625 
L 18.109375 0 
L 9.078125 0 
L 9.078125 75.984375 
L 18.109375 75.984375 
L 18.109375 46.1875 
Q 21.34375 51.125 25.703125 53.5625 
Q 30.078125 56 35.796875 56 
Q 45.21875 56 50.046875 50.171875 
Q 54.890625 44.34375 54.890625 33.015625 
z
" id="DejaVuSans-68"/>
    </defs>
    <g transform="translate(412.294344 155.794679)scale(0.1 -0.1)">
     <use xlink:href="#DejaVuSans-62"/>
     <use x="63.476562" xlink:href="#DejaVuSans-79"/>
     <use x="122.65625" xlink:href="#DejaVuSans-75"/>
     <use x="186.035156" xlink:href="#DejaVuSans-2d"/>
     <use x="222.119141" xlink:href="#DejaVuSans-63"/>
     <use x="277.099609" xlink:href="#DejaVuSans-6f"/>
     <use x="338.28125" xlink:href="#DejaVuSans-68"/>
     <use x="401.660156" xlink:href="#DejaVuSans-61"/>
    </g>
    <!-- (4.65 GB) -->
    <defs>
     <path d="M 37.796875 64.3125 
L 12.890625 25.390625 
L 37.796875 25.390625 
z
M 35.203125 72.90625 
L 47.609375 72.90625 
L 47.609375 25.390625 
L 58.015625 25.390625 
L 58.015625 17.1875 
L 47.609375 17.1875 
L 47.609375 0 
L 37.796875 0 
L 37.796875 17.1875 
L 4.890625 17.1875 
L 4.890625 26.703125 
z
" id="DejaVuSans-34"/>
     <path d="M 10.796875 72.90625 
L 49.515625 72.90625 
L 49.515625 64.59375 
L 19.828125 64.59375 
L 19.828125 46.734375 
Q 21.96875 47.46875 24.109375 47.828125 
Q 26.265625 48.1875 28.421875 48.1875 
Q 40.625 48.1875 47.75 41.5 
Q 54.890625 34.8125 54.890625 23.390625 
Q 54.890625 11.625 47.5625 5.09375 
Q 40.234375 -1.421875 26.90625 -1.421875 
Q 22.3125 -1.421875 17.546875 -0.640625 
Q 12.796875 0.140625 7.71875 1.703125 
L 7.71875 11.625 
Q 12.109375 9.234375 16.796875 8.0625 
Q 21.484375 6.890625 26.703125 6.890625 
Q 35.15625 6.890625 40.078125 11.328125 
Q 45.015625 15.765625 45.015625 23.390625 
Q 45.015625 31 40.078125 35.4375 
Q 35.15625 39.890625 26.703125 39.890625 
Q 22.75 39.890625 18.8125 39.015625 
Q 14.890625 38.140625 10.796875 36.28125 
z
" id="DejaVuSans-35"/>
    </defs>
    <g transform="translate(412.294344 166.992492)scale(0.1 -0.1)">
     <use xlink:href="#DejaVuSans-28"/>
     <use x="39.013672" xlink:href="#DejaVuSans-34"/>
     <use x="102.636719" xlink:href="#DejaVuSans-2e"/>
     <use x="134.423828" xlink:href="#DejaVuSans-36"/>
     <use x="198.046875" xlink:href="#DejaVuSans-35"/>
     <use x="261.669922" xlink:href="#DejaVuSans-20"/>
     <use x="293.457031" xlink:href="#DejaVuSans-47"/>
     <use x="370.947266" xlink:href="#DejaVuSans-42"/>
     <use x="439.550781" xlink:href="#DejaVuSans-29"/>
    </g>
   </g>
   <g id="text_3">
    <!-- byu-now -->
    <defs>
     <path d="M 54.890625 33.015625 
L 54.890625 0 
L 45.90625 0 
L 45.90625 32.71875 
Q 45.90625 40.484375 42.875 44.328125 
Q 39.84375 48.1875 33.796875 48.1875 
Q 26.515625 48.1875 22.3125 43.546875 
Q 18.109375 38.921875 18.109375 30.90625 
L 18.109375 0 
L 9.078125 0 
L 9.078125 54.6875 
L 18.109375 54.6875 
L 18.109375 46.1875 
Q 21.34375 51.125 25.703125 53.5625 
Q 30.078125 56 35.796875 56 
Q 45.21875 56 50.046875 50.171875 
Q 54.890625 44.34375 54.890625 33.015625 
z
" id="DejaVuSans-6e"/>
     <path d="M 4.203125 54.6875 
L 13.1875 54.6875 
L 24.421875 12.015625 
L 35.59375 54.6875 
L 46.1875 54.6875 
L 57.421875 12.015625 
L 68.609375 54.6875 
L 77.59375 54.6875 
L 63.28125 0 
L 52.6875 0 
L 40.921875 44.828125 
L 29.109375 0 
L 18.5 0 
z
" id="DejaVuSans-77"/>
    </defs>
    <g transform="translate(390.427693 82.339927)scale(0.1 -0.1)">
     <use xlink:href="#DejaVuSans-62"/>
     <use x="63.476562" xlink:href="#DejaVuSans-79"/>
     <use x="122.65625" xlink:href="#DejaVuSans-75"/>
     <use x="186.035156" xlink:href="#DejaVuSans-2d"/>
     <use x="222.119141" xlink:href="#DejaVuSans-6e"/>
     <use x="285.498047" xlink:href="#DejaVuSans-6f"/>
     <use x="346.679688" xlink:href="#DejaVuSans-77"/>
    </g>
    <!-- (90.25 GB) -->
    <defs>
     <path d="M 31.78125 66.40625 
Q 24.171875 66.40625 20.328125 58.90625 
Q 16.5 51.421875 16.5 36.375 
Q 16.5 21.390625 20.328125 13.890625 
Q 24.171875 6.390625 31.78125 6.390625 
Q 39.453125 6.390625 43.28125 13.890625 
Q 47.125 21.390625 47.125 36.375 
Q 47.125 51.421875 43.28125 58.90625 
Q 39.453125 66.40625 31.78125 66.40625 
z
M 31.78125 74.21875 
Q 44.046875 74.21875 50.515625 64.515625 
Q 56.984375 54.828125 56.984375 36.375 
Q 56.984375 17.96875 50.515625 8.265625 
Q 44.046875 -1.421875 31.78125 -1.421875 
Q 19.53125 -1.421875 13.0625 8.265625 
Q 6.59375 17.96875 6.59375 36.375 
Q 6.59375 54.828125 13.0625 64.515625 
Q 19.53125 74.21875 31.78125 74.21875 
z
" id="DejaVuSans-30"/>
     <path d="M 19.1875 8.296875 
L 53.609375 8.296875 
L 53.609375 0 
L 7.328125 0 
L 7.328125 8.296875 
Q 12.9375 14.109375 22.625 23.890625 
Q 32.328125 33.6875 34.8125 36.53125 
Q 39.546875 41.84375 41.421875 45.53125 
Q 43.3125 49.21875 43.3125 52.78125 
Q 43.3125 58.59375 39.234375 62.25 
Q 35.15625 65.921875 28.609375 65.921875 
Q 23.96875 65.921875 18.8125 64.3125 
Q 13.671875 62.703125 7.8125 59.421875 
L 7.8125 69.390625 
Q 13.765625 71.78125 18.9375 73 
Q 24.125 74.21875 28.421875 74.21875 
Q 39.75 74.21875 46.484375 68.546875 
Q 53.21875 62.890625 53.21875 53.421875 
Q 53.21875 48.921875 51.53125 44.890625 
Q 49.859375 40.875 45.40625 35.40625 
Q 44.1875 33.984375 37.640625 27.21875 
Q 31.109375 20.453125 19.1875 8.296875 
z
" id="DejaVuSans-32"/>
    </defs>
    <g transform="translate(390.427693 93.53774)scale(0.1 -0.1)">
     <use xlink:href="#DejaVuSans-28"/>
     <use x="39.013672" xlink:href="#DejaVuSans-39"/>
     <use x="102.636719" xlink:href="#DejaVuSans-30"/>
     <use x="166.259766" xlink:href="#DejaVuSans-2e"/>
     <use x="198.046875" xlink:href="#DejaVuSans-32"/>
     <use x="261.669922" xlink:href="#DejaVuSans-35"/>
     <use x="325.292969" xlink:href="#DejaVuSans-20"/>
     <use x="357.080078" xlink:href="#DejaVuSans-47"/>
     <use x="434.570312" xlink:href="#DejaVuSans-42"/>
     <use x="503.173828" xlink:href="#DejaVuSans-29"/>
    </g>
   </g>
   <g id="text_4">
    <!-- deepbank -->
    <defs>
     <path d="M 45.40625 46.390625 
L 45.40625 75.984375 
L 54.390625 75.984375 
L 54.390625 0 
L 45.40625 0 
L 45.40625 8.203125 
Q 42.578125 3.328125 38.25 0.953125 
Q 33.9375 -1.421875 27.875 -1.421875 
Q 17.96875 -1.421875 11.734375 6.484375 
Q 5.515625 14.40625 5.515625 27.296875 
Q 5.515625 40.1875 11.734375 48.09375 
Q 17.96875 56 27.875 56 
Q 33.9375 56 38.25 53.625 
Q 42.578125 51.265625 45.40625 46.390625 
z
M 14.796875 27.296875 
Q 14.796875 17.390625 18.875 11.75 
Q 22.953125 6.109375 30.078125 6.109375 
Q 37.203125 6.109375 41.296875 11.75 
Q 45.40625 17.390625 45.40625 27.296875 
Q 45.40625 37.203125 41.296875 42.84375 
Q 37.203125 48.484375 30.078125 48.484375 
Q 22.953125 48.484375 18.875 42.84375 
Q 14.796875 37.203125 14.796875 27.296875 
z
" id="DejaVuSans-64"/>
     <path d="M 56.203125 29.59375 
L 56.203125 25.203125 
L 14.890625 25.203125 
Q 15.484375 15.921875 20.484375 11.0625 
Q 25.484375 6.203125 34.421875 6.203125 
Q 39.59375 6.203125 44.453125 7.46875 
Q 49.3125 8.734375 54.109375 11.28125 
L 54.109375 2.78125 
Q 49.265625 0.734375 44.1875 -0.34375 
Q 39.109375 -1.421875 33.890625 -1.421875 
Q 20.796875 -1.421875 13.15625 6.1875 
Q 5.515625 13.8125 5.515625 26.8125 
Q 5.515625 40.234375 12.765625 48.109375 
Q 20.015625 56 32.328125 56 
Q 43.359375 56 49.78125 48.890625 
Q 56.203125 41.796875 56.203125 29.59375 
z
M 47.21875 32.234375 
Q 47.125 39.59375 43.09375 43.984375 
Q 39.0625 48.390625 32.421875 48.390625 
Q 24.90625 48.390625 20.390625 44.140625 
Q 15.875 39.890625 15.1875 32.171875 
z
" id="DejaVuSans-65"/>
     <path d="M 18.109375 8.203125 
L 18.109375 -20.796875 
L 9.078125 -20.796875 
L 9.078125 54.6875 
L 18.109375 54.6875 
L 18.109375 46.390625 
Q 20.953125 51.265625 25.265625 53.625 
Q 29.59375 56 35.59375 56 
Q 45.5625 56 51.78125 48.09375 
Q 58.015625 40.1875 58.015625 27.296875 
Q 58.015625 14.40625 51.78125 6.484375 
Q 45.5625 -1.421875 35.59375 -1.421875 
Q 29.59375 -1.421875 25.265625 0.953125 
Q 20.953125 3.328125 18.109375 8.203125 
z
M 48.6875 27.296875 
Q 48.6875 37.203125 44.609375 42.84375 
Q 40.53125 48.484375 33.40625 48.484375 
Q 26.265625 48.484375 22.1875 42.84375 
Q 18.109375 37.203125 18.109375 27.296875 
Q 18.109375 17.390625 22.1875 11.75 
Q 26.265625 6.109375 33.40625 6.109375 
Q 40.53125 6.109375 44.609375 11.75 
Q 48.6875 17.390625 48.6875 27.296875 
z
" id="DejaVuSans-70"/>
     <path d="M 9.078125 75.984375 
L 18.109375 75.984375 
L 18.109375 31.109375 
L 44.921875 54.6875 
L 56.390625 54.6875 
L 27.390625 29.109375 
L 57.625 0 
L 45.90625 0 
L 18.109375 26.703125 
L 18.109375 0 
L 9.078125 0 
z
" id="DejaVuSans-6b"/>
    </defs>
    <g transform="translate(342.944226 26.363745)scale(0.1 -0.1)">
     <use xlink:href="#DejaVuSans-64"/>
     <use x="63.476562" xlink:href="#DejaVuSans-65"/>
     <use x="125" xlink:href="#DejaVuSans-65"/>
     <use x="186.523438" xlink:href="#DejaVuSans-70"/>
     <use x="250" xlink:href="#DejaVuSans-62"/>
     <use x="313.476562" xlink:href="#DejaVuSans-61"/>
     <use x="374.755859" xlink:href="#DejaVuSans-6e"/>
     <use x="438.134766" xlink:href="#DejaVuSans-6b"/>
    </g>
    <!-- (579.6 MB) -->
    <defs>
     <path d="M 8.203125 72.90625 
L 55.078125 72.90625 
L 55.078125 68.703125 
L 28.609375 0 
L 18.3125 0 
L 43.21875 64.59375 
L 8.203125 64.59375 
z
" id="DejaVuSans-37"/>
     <path d="M 9.8125 72.90625 
L 24.515625 72.90625 
L 43.109375 23.296875 
L 61.8125 72.90625 
L 76.515625 72.90625 
L 76.515625 0 
L 66.890625 0 
L 66.890625 64.015625 
L 48.09375 14.015625 
L 38.1875 14.015625 
L 19.390625 64.015625 
L 19.390625 0 
L 9.8125 0 
z
" id="DejaVuSans-4d"/>
    </defs>
    <g transform="translate(342.944226 37.561558)scale(0.1 -0.1)">
     <use xlink:href="#DejaVuSans-28"/>
     <use x="39.013672" xlink:href="#DejaVuSans-35"/>
     <use x="102.636719" xlink:href="#DejaVuSans-37"/>
     <use x="166.259766" xlink:href="#DejaVuSans-39"/>
     <use x="229.882812" xlink:href="#DejaVuSans-2e"/>
     <use x="261.669922" xlink:href="#DejaVuSans-36"/>
     <use x="325.292969" xlink:href="#DejaVuSans-20"/>
     <use x="357.080078" xlink:href="#DejaVuSans-4d"/>
     <use x="443.359375" xlink:href="#DejaVuSans-42"/>
     <use x="511.962891" xlink:href="#DejaVuSans-29"/>
    </g>
   </g>
   <g id="text_5">
    <!-- fanfiction -->
    <defs>
     <path d="M 37.109375 75.984375 
L 37.109375 68.5 
L 28.515625 68.5 
Q 23.6875 68.5 21.796875 66.546875 
Q 19.921875 64.59375 19.921875 59.515625 
L 19.921875 54.6875 
L 34.71875 54.6875 
L 34.71875 47.703125 
L 19.921875 47.703125 
L 19.921875 0 
L 10.890625 0 
L 10.890625 47.703125 
L 2.296875 47.703125 
L 2.296875 54.6875 
L 10.890625 54.6875 
L 10.890625 58.5 
Q 10.890625 67.625 15.140625 71.796875 
Q 19.390625 75.984375 28.609375 75.984375 
z
" id="DejaVuSans-66"/>
     <path d="M 9.421875 54.6875 
L 18.40625 54.6875 
L 18.40625 0 
L 9.421875 0 
z
M 9.421875 75.984375 
L 18.40625 75.984375 
L 18.40625 64.59375 
L 9.421875 64.59375 
z
" id="DejaVuSans-69"/>
     <path d="M 18.3125 70.21875 
L 18.3125 54.6875 
L 36.8125 54.6875 
L 36.8125 47.703125 
L 18.3125 47.703125 
L 18.3125 18.015625 
Q 18.3125 11.328125 20.140625 9.421875 
Q 21.96875 7.515625 27.59375 7.515625 
L 36.8125 7.515625 
L 36.8125 0 
L 27.59375 0 
Q 17.1875 0 13.234375 3.875 
Q 9.28125 7.765625 9.28125 18.015625 
L 9.28125 47.703125 
L 2.6875 47.703125 
L 2.6875 54.6875 
L 9.28125 54.6875 
L 9.28125 70.21875 
z
" id="DejaVuSans-74"/>
    </defs>
    <g transform="translate(161.764734 -11.189825)scale(0.1 -0.1)">
     <use xlink:href="#DejaVuSans-66"/>
     <use x="35.205078" xlink:href="#DejaVuSans-61"/>
     <use x="96.484375" xlink:href="#DejaVuSans-6e"/>
     <use x="159.863281" xlink:href="#DejaVuSans-66"/>
     <use x="195.068359" xlink:href="#DejaVuSans-69"/>
     <use x="222.851562" xlink:href="#DejaVuSans-63"/>
     <use x="277.832031" xlink:href="#DejaVuSans-74"/>
     <use x="317.041016" xlink:href="#DejaVuSans-69"/>
     <use x="344.824219" xlink:href="#DejaVuSans-6f"/>
     <use x="406.005859" xlink:href="#DejaVuSans-6e"/>
    </g>
    <!-- (175.2 GB) -->
    <defs>
     <path d="M 12.40625 8.296875 
L 28.515625 8.296875 
L 28.515625 63.921875 
L 10.984375 60.40625 
L 10.984375 69.390625 
L 28.421875 72.90625 
L 38.28125 72.90625 
L 38.28125 8.296875 
L 54.390625 8.296875 
L 54.390625 0 
L 12.40625 0 
z
" id="DejaVuSans-31"/>
    </defs>
    <g transform="translate(154.483484 0.007988)scale(0.1 -0.1)">
     <use xlink:href="#DejaVuSans-28"/>
     <use x="39.013672" xlink:href="#DejaVuSans-31"/>
     <use x="102.636719" xlink:href="#DejaVuSans-37"/>
     <use x="166.259766" xlink:href="#DejaVuSans-35"/>
     <use x="229.882812" xlink:href="#DejaVuSans-2e"/>
     <use x="261.669922" xlink:href="#DejaVuSans-32"/>
     <use x="325.292969" xlink:href="#DejaVuSans-20"/>
     <use x="357.080078" xlink:href="#DejaVuSans-47"/>
     <use x="434.570312" xlink:href="#DejaVuSans-42"/>
     <use x="503.173828" xlink:href="#DejaVuSans-29"/>
    </g>
   </g>
   <g id="text_6">
    <!-- gigaword-en-5 -->
    <defs>
     <path d="M 45.40625 27.984375 
Q 45.40625 37.75 41.375 43.109375 
Q 37.359375 48.484375 30.078125 48.484375 
Q 22.859375 48.484375 18.828125 43.109375 
Q 14.796875 37.75 14.796875 27.984375 
Q 14.796875 18.265625 18.828125 12.890625 
Q 22.859375 7.515625 30.078125 7.515625 
Q 37.359375 7.515625 41.375 12.890625 
Q 45.40625 18.265625 45.40625 27.984375 
z
M 54.390625 6.78125 
Q 54.390625 -7.171875 48.1875 -13.984375 
Q 42 -20.796875 29.203125 -20.796875 
Q 24.46875 -20.796875 20.265625 -20.09375 
Q 16.0625 -19.390625 12.109375 -17.921875 
L 12.109375 -9.1875 
Q 16.0625 -11.328125 19.921875 -12.34375 
Q 23.78125 -13.375 27.78125 -13.375 
Q 36.625 -13.375 41.015625 -8.765625 
Q 45.40625 -4.15625 45.40625 5.171875 
L 45.40625 9.625 
Q 42.625 4.78125 38.28125 2.390625 
Q 33.9375 0 27.875 0 
Q 17.828125 0 11.671875 7.65625 
Q 5.515625 15.328125 5.515625 27.984375 
Q 5.515625 40.671875 11.671875 48.328125 
Q 17.828125 56 27.875 56 
Q 33.9375 56 38.28125 53.609375 
Q 42.625 51.21875 45.40625 46.390625 
L 45.40625 54.6875 
L 54.390625 54.6875 
z
" id="DejaVuSans-67"/>
     <path d="M 41.109375 46.296875 
Q 39.59375 47.171875 37.8125 47.578125 
Q 36.03125 48 33.890625 48 
Q 26.265625 48 22.1875 43.046875 
Q 18.109375 38.09375 18.109375 28.8125 
L 18.109375 0 
L 9.078125 0 
L 9.078125 54.6875 
L 18.109375 54.6875 
L 18.109375 46.1875 
Q 20.953125 51.171875 25.484375 53.578125 
Q 30.03125 56 36.53125 56 
Q 37.453125 56 38.578125 55.875 
Q 39.703125 55.765625 41.0625 55.515625 
z
" id="DejaVuSans-72"/>
    </defs>
    <g transform="translate(-0.681525 79.878148)scale(0.1 -0.1)">
     <use xlink:href="#DejaVuSans-67"/>
     <use x="63.476562" xlink:href="#DejaVuSans-69"/>
     <use x="91.259766" xlink:href="#DejaVuSans-67"/>
     <use x="154.736328" xlink:href="#DejaVuSans-61"/>
     <use x="216.015625" xlink:href="#DejaVuSans-77"/>
     <use x="297.802734" xlink:href="#DejaVuSans-6f"/>
     <use x="358.984375" xlink:href="#DejaVuSans-72"/>
     <use x="400.082031" xlink:href="#DejaVuSans-64"/>
     <use x="463.558594" xlink:href="#DejaVuSans-2d"/>
     <use x="499.642578" xlink:href="#DejaVuSans-65"/>
     <use x="561.166016" xlink:href="#DejaVuSans-6e"/>
     <use x="624.544922" xlink:href="#DejaVuSans-2d"/>
     <use x="660.628906" xlink:href="#DejaVuSans-35"/>
    </g>
    <!-- (34.49 GB) -->
    <g transform="translate(17.526287 91.07596)scale(0.1 -0.1)">
     <use xlink:href="#DejaVuSans-28"/>
     <use x="39.013672" xlink:href="#DejaVuSans-33"/>
     <use x="102.636719" xlink:href="#DejaVuSans-34"/>
     <use x="166.259766" xlink:href="#DejaVuSans-2e"/>
     <use x="198.046875" xlink:href="#DejaVuSans-34"/>
     <use x="261.669922" xlink:href="#DejaVuSans-39"/>
     <use x="325.292969" xlink:href="#DejaVuSans-20"/>
     <use x="357.080078" xlink:href="#DejaVuSans-47"/>
     <use x="434.570312" xlink:href="#DejaVuSans-42"/>
     <use x="503.173828" xlink:href="#DejaVuSans-29"/>
    </g>
   </g>
   <g id="text_7">
    <!-- google-surface-ngrams -->
    <defs>
     <path d="M 9.421875 75.984375 
L 18.40625 75.984375 
L 18.40625 0 
L 9.421875 0 
z
" id="DejaVuSans-6c"/>
     <path d="M 44.28125 53.078125 
L 44.28125 44.578125 
Q 40.484375 46.53125 36.375 47.5 
Q 32.28125 48.484375 27.875 48.484375 
Q 21.1875 48.484375 17.84375 46.4375 
Q 14.5 44.390625 14.5 40.28125 
Q 14.5 37.15625 16.890625 35.375 
Q 19.28125 33.59375 26.515625 31.984375 
L 29.59375 31.296875 
Q 39.15625 29.25 43.1875 25.515625 
Q 47.21875 21.78125 47.21875 15.09375 
Q 47.21875 7.46875 41.1875 3.015625 
Q 35.15625 -1.421875 24.609375 -1.421875 
Q 20.21875 -1.421875 15.453125 -0.5625 
Q 10.6875 0.296875 5.421875 2 
L 5.421875 11.28125 
Q 10.40625 8.6875 15.234375 7.390625 
Q 20.0625 6.109375 24.8125 6.109375 
Q 31.15625 6.109375 34.5625 8.28125 
Q 37.984375 10.453125 37.984375 14.40625 
Q 37.984375 18.0625 35.515625 20.015625 
Q 33.0625 21.96875 24.703125 23.78125 
L 21.578125 24.515625 
Q 13.234375 26.265625 9.515625 29.90625 
Q 5.8125 33.546875 5.8125 39.890625 
Q 5.8125 47.609375 11.28125 51.796875 
Q 16.75 56 26.8125 56 
Q 31.78125 56 36.171875 55.265625 
Q 40.578125 54.546875 44.28125 53.078125 
z
" id="DejaVuSans-73"/>
     <path d="M 52 44.1875 
Q 55.375 50.25 60.0625 53.125 
Q 64.75 56 71.09375 56 
Q 79.640625 56 84.28125 50.015625 
Q 88.921875 44.046875 88.921875 33.015625 
L 88.921875 0 
L 79.890625 0 
L 79.890625 32.71875 
Q 79.890625 40.578125 77.09375 44.375 
Q 74.3125 48.1875 68.609375 48.1875 
Q 61.625 48.1875 57.5625 43.546875 
Q 53.515625 38.921875 53.515625 30.90625 
L 53.515625 0 
L 44.484375 0 
L 44.484375 32.71875 
Q 44.484375 40.625 41.703125 44.40625 
Q 38.921875 48.1875 33.109375 48.1875 
Q 26.21875 48.1875 22.15625 43.53125 
Q 18.109375 38.875 18.109375 30.90625 
L 18.109375 0 
L 9.078125 0 
L 9.078125 54.6875 
L 18.109375 54.6875 
L 18.109375 46.1875 
Q 21.1875 51.21875 25.484375 53.609375 
Q 29.78125 56 35.6875 56 
Q 41.65625 56 45.828125 52.96875 
Q 50 49.953125 52 44.1875 
z
" id="DejaVuSans-6d"/>
    </defs>
    <g transform="translate(-62.478368 125.577405)scale(0.1 -0.1)">
     <use xlink:href="#DejaVuSans-67"/>
     <use x="63.476562" xlink:href="#DejaVuSans-6f"/>
     <use x="124.658203" xlink:href="#DejaVuSans-6f"/>
     <use x="185.839844" xlink:href="#DejaVuSans-67"/>
     <use x="249.316406" xlink:href="#DejaVuSans-6c"/>
     <use x="277.099609" xlink:href="#DejaVuSans-65"/>
     <use x="338.623047" xlink:href="#DejaVuSans-2d"/>
     <use x="374.707031" xlink:href="#DejaVuSans-73"/>
     <use x="426.806641" xlink:href="#DejaVuSans-75"/>
     <use x="490.185547" xlink:href="#DejaVuSans-72"/>
     <use x="531.298828" xlink:href="#DejaVuSans-66"/>
     <use x="566.503906" xlink:href="#DejaVuSans-61"/>
     <use x="627.783203" xlink:href="#DejaVuSans-63"/>
     <use x="682.763672" xlink:href="#DejaVuSans-65"/>
     <use x="744.287109" xlink:href="#DejaVuSans-2d"/>
     <use x="780.371094" xlink:href="#DejaVuSans-6e"/>
     <use x="843.75" xlink:href="#DejaVuSans-67"/>
     <use x="907.226562" xlink:href="#DejaVuSans-72"/>
     <use x="948.339844" xlink:href="#DejaVuSans-61"/>
     <use x="1009.619141" xlink:href="#DejaVuSans-6d"/>
     <use x="1107.03125" xlink:href="#DejaVuSans-73"/>
    </g>
    <!-- (26.2 GB) -->
    <g transform="translate(5.579444 136.775217)scale(0.1 -0.1)">
     <use xlink:href="#DejaVuSans-28"/>
     <use x="39.013672" xlink:href="#DejaVuSans-32"/>
     <use x="102.636719" xlink:href="#DejaVuSans-36"/>
     <use x="166.259766" xlink:href="#DejaVuSans-2e"/>
     <use x="198.046875" xlink:href="#DejaVuSans-32"/>
     <use x="261.669922" xlink:href="#DejaVuSans-20"/>
     <use x="293.457031" xlink:href="#DejaVuSans-47"/>
     <use x="370.947266" xlink:href="#DejaVuSans-42"/>
     <use x="439.550781" xlink:href="#DejaVuSans-29"/>
    </g>
   </g>
   <g id="text_8">
    <!-- google-syntax-ngrams -->
    <defs>
     <path d="M 54.890625 54.6875 
L 35.109375 28.078125 
L 55.90625 0 
L 45.3125 0 
L 29.390625 21.484375 
L 13.484375 0 
L 2.875 0 
L 24.125 28.609375 
L 4.6875 54.6875 
L 15.28125 54.6875 
L 29.78125 35.203125 
L 44.28125 54.6875 
z
" id="DejaVuSans-78"/>
    </defs>
    <g transform="translate(85.739178 349.528716)scale(0.1 -0.1)">
     <use xlink:href="#DejaVuSans-67"/>
     <use x="63.476562" xlink:href="#DejaVuSans-6f"/>
     <use x="124.658203" xlink:href="#DejaVuSans-6f"/>
     <use x="185.839844" xlink:href="#DejaVuSans-67"/>
     <use x="249.316406" xlink:href="#DejaVuSans-6c"/>
     <use x="277.099609" xlink:href="#DejaVuSans-65"/>
     <use x="338.623047" xlink:href="#DejaVuSans-2d"/>
     <use x="374.707031" xlink:href="#DejaVuSans-73"/>
     <use x="426.806641" xlink:href="#DejaVuSans-79"/>
     <use x="485.986328" xlink:href="#DejaVuSans-6e"/>
     <use x="549.365234" xlink:href="#DejaVuSans-74"/>
     <use x="588.574219" xlink:href="#DejaVuSans-61"/>
     <use x="649.853516" xlink:href="#DejaVuSans-78"/>
     <use x="709.033203" xlink:href="#DejaVuSans-2d"/>
     <use x="745.117188" xlink:href="#DejaVuSans-6e"/>
     <use x="808.496094" xlink:href="#DejaVuSans-67"/>
     <use x="871.972656" xlink:href="#DejaVuSans-72"/>
     <use x="913.085938" xlink:href="#DejaVuSans-61"/>
     <use x="974.365234" xlink:href="#DejaVuSans-6d"/>
     <use x="1071.777344" xlink:href="#DejaVuSans-73"/>
    </g>
    <!-- (341.23 GB) -->
    <g transform="translate(137.546991 360.726528)scale(0.1 -0.1)">
     <use xlink:href="#DejaVuSans-28"/>
     <use x="39.013672" xlink:href="#DejaVuSans-33"/>
     <use x="102.636719" xlink:href="#DejaVuSans-34"/>
     <use x="166.259766" xlink:href="#DejaVuSans-31"/>
     <use x="229.882812" xlink:href="#DejaVuSans-2e"/>
     <use x="261.669922" xlink:href="#DejaVuSans-32"/>
     <use x="325.292969" xlink:href="#DejaVuSans-33"/>
     <use x="388.916016" xlink:href="#DejaVuSans-20"/>
     <use x="420.703125" xlink:href="#DejaVuSans-47"/>
     <use x="498.193359" xlink:href="#DejaVuSans-42"/>
     <use x="566.796875" xlink:href="#DejaVuSans-29"/>
    </g>
   </g>
   <g id="text_9">
    <!-- gutenberg-en -->
    <g transform="translate(410.209957 200.857091)scale(0.1 -0.1)">
     <use xlink:href="#DejaVuSans-67"/>
     <use x="63.476562" xlink:href="#DejaVuSans-75"/>
     <use x="126.855469" xlink:href="#DejaVuSans-74"/>
     <use x="166.064453" xlink:href="#DejaVuSans-65"/>
     <use x="227.587891" xlink:href="#DejaVuSans-6e"/>
     <use x="290.966797" xlink:href="#DejaVuSans-62"/>
     <use x="354.443359" xlink:href="#DejaVuSans-65"/>
     <use x="415.966797" xlink:href="#DejaVuSans-72"/>
     <use x="457.064453" xlink:href="#DejaVuSans-67"/>
     <use x="520.541016" xlink:href="#DejaVuSans-2d"/>
     <use x="556.625" xlink:href="#DejaVuSans-65"/>
     <use x="618.148438" xlink:href="#DejaVuSans-6e"/>
    </g>
    <!-- (12.69 GB) -->
    <g transform="translate(410.209957 212.054904)scale(0.1 -0.1)">
     <use xlink:href="#DejaVuSans-28"/>
     <use x="39.013672" xlink:href="#DejaVuSans-31"/>
     <use x="102.636719" xlink:href="#DejaVuSans-32"/>
     <use x="166.259766" xlink:href="#DejaVuSans-2e"/>
     <use x="198.046875" xlink:href="#DejaVuSans-36"/>
     <use x="261.669922" xlink:href="#DejaVuSans-39"/>
     <use x="325.292969" xlink:href="#DejaVuSans-20"/>
     <use x="357.080078" xlink:href="#DejaVuSans-47"/>
     <use x="434.570312" xlink:href="#DejaVuSans-42"/>
     <use x="503.173828" xlink:href="#DejaVuSans-29"/>
    </g>
   </g>
   <g id="text_10">
    <!-- nyt-annotated -->
    <g transform="translate(411.950223 188.00869)scale(0.1 -0.1)">
     <use xlink:href="#DejaVuSans-6e"/>
     <use x="63.378906" xlink:href="#DejaVuSans-79"/>
     <use x="122.558594" xlink:href="#DejaVuSans-74"/>
     <use x="161.767578" xlink:href="#DejaVuSans-2d"/>
     <use x="197.851562" xlink:href="#DejaVuSans-61"/>
     <use x="259.130859" xlink:href="#DejaVuSans-6e"/>
     <use x="322.509766" xlink:href="#DejaVuSans-6e"/>
     <use x="385.888672" xlink:href="#DejaVuSans-6f"/>
     <use x="447.070312" xlink:href="#DejaVuSans-74"/>
     <use x="486.279297" xlink:href="#DejaVuSans-61"/>
     <use x="547.558594" xlink:href="#DejaVuSans-74"/>
     <use x="586.767578" xlink:href="#DejaVuSans-65"/>
     <use x="648.291016" xlink:href="#DejaVuSans-64"/>
    </g>
    <!-- (3.25 GB) -->
    <g transform="translate(411.950223 199.206502)scale(0.1 -0.1)">
     <use xlink:href="#DejaVuSans-28"/>
     <use x="39.013672" xlink:href="#DejaVuSans-33"/>
     <use x="102.636719" xlink:href="#DejaVuSans-2e"/>
     <use x="134.423828" xlink:href="#DejaVuSans-32"/>
     <use x="198.046875" xlink:href="#DejaVuSans-35"/>
     <use x="261.669922" xlink:href="#DejaVuSans-20"/>
     <use x="293.457031" xlink:href="#DejaVuSans-47"/>
     <use x="370.947266" xlink:href="#DejaVuSans-42"/>
     <use x="439.550781" xlink:href="#DejaVuSans-29"/>
    </g>
   </g>
   <g id="text_11">
    <!-- penn-treebank-revised -->
    <defs>
     <path d="M 2.984375 54.6875 
L 12.5 54.6875 
L 29.59375 8.796875 
L 46.6875 54.6875 
L 56.203125 54.6875 
L 35.6875 0 
L 23.484375 0 
z
" id="DejaVuSans-76"/>
    </defs>
    <g transform="translate(412.19376 185.363415)scale(0.1 -0.1)">
     <use xlink:href="#DejaVuSans-70"/>
     <use x="63.476562" xlink:href="#DejaVuSans-65"/>
     <use x="125" xlink:href="#DejaVuSans-6e"/>
     <use x="188.378906" xlink:href="#DejaVuSans-6e"/>
     <use x="251.757812" xlink:href="#DejaVuSans-2d"/>
     <use x="287.841797" xlink:href="#DejaVuSans-74"/>
     <use x="327.050781" xlink:href="#DejaVuSans-72"/>
     <use x="368.132812" xlink:href="#DejaVuSans-65"/>
     <use x="429.65625" xlink:href="#DejaVuSans-65"/>
     <use x="491.179688" xlink:href="#DejaVuSans-62"/>
     <use x="554.65625" xlink:href="#DejaVuSans-61"/>
     <use x="615.935547" xlink:href="#DejaVuSans-6e"/>
     <use x="679.314453" xlink:href="#DejaVuSans-6b"/>
     <use x="737.224609" xlink:href="#DejaVuSans-2d"/>
     <use x="773.308594" xlink:href="#DejaVuSans-72"/>
     <use x="814.390625" xlink:href="#DejaVuSans-65"/>
     <use x="875.914062" xlink:href="#DejaVuSans-76"/>
     <use x="935.09375" xlink:href="#DejaVuSans-69"/>
     <use x="962.876953" xlink:href="#DejaVuSans-73"/>
     <use x="1014.976562" xlink:href="#DejaVuSans-65"/>
     <use x="1076.5" xlink:href="#DejaVuSans-64"/>
    </g>
    <!-- (16.19 MB) -->
    <g transform="translate(412.19376 196.561227)scale(0.1 -0.1)">
     <use xlink:href="#DejaVuSans-28"/>
     <use x="39.013672" xlink:href="#DejaVuSans-31"/>
     <use x="102.636719" xlink:href="#DejaVuSans-36"/>
     <use x="166.259766" xlink:href="#DejaVuSans-2e"/>
     <use x="198.046875" xlink:href="#DejaVuSans-31"/>
     <use x="261.669922" xlink:href="#DejaVuSans-39"/>
     <use x="325.292969" xlink:href="#DejaVuSans-20"/>
     <use x="357.080078" xlink:href="#DejaVuSans-4d"/>
     <use x="443.359375" xlink:href="#DejaVuSans-42"/>
     <use x="511.962891" xlink:href="#DejaVuSans-29"/>
    </g>
   </g>
   <g id="text_12">
    <!-- roc-stories -->
    <g transform="translate(412.196769 185.327852)scale(0.1 -0.1)">
     <use xlink:href="#DejaVuSans-72"/>
     <use x="41.082031" xlink:href="#DejaVuSans-6f"/>
     <use x="102.263672" xlink:href="#DejaVuSans-63"/>
     <use x="157.244141" xlink:href="#DejaVuSans-2d"/>
     <use x="193.328125" xlink:href="#DejaVuSans-73"/>
     <use x="245.427734" xlink:href="#DejaVuSans-74"/>
     <use x="284.636719" xlink:href="#DejaVuSans-6f"/>
     <use x="345.818359" xlink:href="#DejaVuSans-72"/>
     <use x="386.931641" xlink:href="#DejaVuSans-69"/>
     <use x="414.714844" xlink:href="#DejaVuSans-65"/>
     <use x="476.238281" xlink:href="#DejaVuSans-73"/>
    </g>
    <!-- (27.67 MB) -->
    <g transform="translate(412.196769 196.525664)scale(0.1 -0.1)">
     <use xlink:href="#DejaVuSans-28"/>
     <use x="39.013672" xlink:href="#DejaVuSans-32"/>
     <use x="102.636719" xlink:href="#DejaVuSans-37"/>
     <use x="166.259766" xlink:href="#DejaVuSans-2e"/>
     <use x="198.046875" xlink:href="#DejaVuSans-36"/>
     <use x="261.669922" xlink:href="#DejaVuSans-37"/>
     <use x="325.292969" xlink:href="#DejaVuSans-20"/>
     <use x="357.080078" xlink:href="#DejaVuSans-4d"/>
     <use x="443.359375" xlink:href="#DejaVuSans-42"/>
     <use x="511.962891" xlink:href="#DejaVuSans-29"/>
    </g>
   </g>
   <g id="text_13">
    <!-- toronto-books -->
    <g transform="translate(412.683437 177.639694)scale(0.1 -0.1)">
     <use xlink:href="#DejaVuSans-74"/>
     <use x="39.208984" xlink:href="#DejaVuSans-6f"/>
     <use x="100.390625" xlink:href="#DejaVuSans-72"/>
     <use x="141.472656" xlink:href="#DejaVuSans-6f"/>
     <use x="202.654297" xlink:href="#DejaVuSans-6e"/>
     <use x="266.033203" xlink:href="#DejaVuSans-74"/>
     <use x="305.242188" xlink:href="#DejaVuSans-6f"/>
     <use x="366.439453" xlink:href="#DejaVuSans-2d"/>
     <use x="402.523438" xlink:href="#DejaVuSans-62"/>
     <use x="466" xlink:href="#DejaVuSans-6f"/>
     <use x="527.181641" xlink:href="#DejaVuSans-6f"/>
     <use x="588.363281" xlink:href="#DejaVuSans-6b"/>
     <use x="646.273438" xlink:href="#DejaVuSans-73"/>
    </g>
    <!-- (9.44 GB) -->
    <g transform="translate(412.683437 188.837506)scale(0.1 -0.1)">
     <use xlink:href="#DejaVuSans-28"/>
     <use x="39.013672" xlink:href="#DejaVuSans-39"/>
     <use x="102.636719" xlink:href="#DejaVuSans-2e"/>
     <use x="134.423828" xlink:href="#DejaVuSans-34"/>
     <use x="198.046875" xlink:href="#DejaVuSans-34"/>
     <use x="261.669922" xlink:href="#DejaVuSans-20"/>
     <use x="293.457031" xlink:href="#DejaVuSans-47"/>
     <use x="370.947266" xlink:href="#DejaVuSans-42"/>
     <use x="439.550781" xlink:href="#DejaVuSans-29"/>
    </g>
   </g>
  </g>
 </g>
</svg>
